<svg xmlns="http://www.w3.org/2000/svg" width="20" height="21" viewBox="0 0 20 21">
    <g fill="none" fill-rule="evenodd">
        <g fill="#FFF">
            <g>
                <g>
                    <path d="M3.282 2h1.436c.446 0 .607.047.77.134.163.087.291.215.378.378.088.163.134.325.134.77V4.72c0 .446-.046.607-.134.77-.087.163-.215.291-.378.378-.163.088-.324.134-.77.134H3.282c-.446 0-.607-.046-.77-.134-.163-.087-.291-.215-.378-.378C2.046 5.326 2 5.165 2 4.72V3.283c0-.446.046-.608.134-.771.087-.163.215-.29.378-.378.163-.087.324-.134.77-.134zm0 6.001h1.436c.446 0 .607.047.77.134.163.087.291.215.378.378.088.163.134.325.134.77v1.437c0 .446-.046.607-.134.77-.087.163-.215.291-.378.379-.163.087-.324.133-.77.133H3.282c-.446 0-.607-.046-.77-.133-.163-.088-.291-.216-.378-.379-.088-.163-.134-.324-.134-.77V9.284c0-.446.046-.608.134-.77.087-.164.215-.292.378-.379.163-.087.324-.134.77-.134zm0 6.002h1.436c.446 0 .607.046.77.133.163.087.291.215.378.378.088.163.134.325.134.77v1.437c0 .446-.046.608-.134.77-.087.164-.215.291-.378.379-.163.087-.324.133-.77.133H3.282c-.446 0-.607-.046-.77-.133-.163-.088-.291-.215-.378-.378-.088-.163-.134-.325-.134-.77v-1.437c0-.446.046-.608.134-.77.087-.164.215-.292.378-.379.163-.087.324-.133.77-.133zM9.282 2h1.436c.446 0 .607.047.77.134.163.087.291.215.378.378.088.163.134.325.134.77V4.72c0 .446-.046.607-.134.77-.087.163-.215.291-.378.378-.163.088-.324.134-.77.134H9.282c-.446 0-.607-.046-.77-.134-.163-.087-.291-.215-.378-.378C8.046 5.326 8 5.165 8 4.72V3.283c0-.446.046-.608.134-.771.087-.163.215-.29.378-.378.163-.087.324-.134.77-.134zm0 6.001h1.436c.446 0 .607.047.77.134.163.087.291.215.378.378.088.163.134.325.134.77v1.437c0 .446-.046.607-.134.77-.087.163-.215.291-.378.379-.163.087-.324.133-.77.133H9.282c-.446 0-.607-.046-.77-.133-.163-.088-.291-.216-.378-.379-.088-.163-.134-.324-.134-.77V9.284c0-.446.046-.608.134-.77.087-.164.215-.292.378-.379.163-.087.324-.134.77-.134zm0 6.002h1.436c.446 0 .607.046.77.133.163.087.291.215.378.378.088.163.134.325.134.77v1.437c0 .446-.046.608-.134.77-.087.164-.215.291-.378.379-.163.087-.324.133-.77.133H9.282c-.446 0-.607-.046-.77-.133-.163-.088-.291-.215-.378-.378-.088-.163-.134-.325-.134-.77v-1.437c0-.446.046-.608.134-.77.087-.164.215-.292.378-.379.163-.087.324-.133.77-.133zm6-12.003h1.436c.446 0 .607.047.77.134.163.087.291.215.378.378.088.163.134.325.134.77V4.72c0 .446-.046.607-.134.77-.087.163-.215.291-.378.378-.163.088-.324.134-.77.134h-1.436c-.446 0-.607-.046-.77-.134-.163-.087-.291-.215-.378-.378-.088-.163-.134-.324-.134-.77V3.283c0-.446.046-.608.134-.771.087-.163.215-.29.378-.378.163-.087.324-.134.77-.134zm0 6.001h1.436c.446 0 .607.047.77.134.163.087.291.215.378.378.088.163.134.325.134.77v1.437c0 .446-.046.607-.134.77-.087.163-.215.291-.378.379-.163.087-.324.133-.77.133h-1.436c-.446 0-.607-.046-.77-.133-.163-.088-.291-.216-.378-.379-.088-.163-.134-.324-.134-.77V9.284c0-.446.046-.608.134-.77.087-.164.215-.292.378-.379.163-.087.324-.134.77-.134zm0 6.002h1.436c.446 0 .607.046.77.133.163.087.291.215.378.378.088.163.134.325.134.77v1.437c0 .446-.046.608-.134.77-.087.164-.215.291-.378.379-.163.087-.324.133-.77.133h-1.436c-.446 0-.607-.046-.77-.133-.163-.088-.291-.215-.378-.378-.088-.163-.134-.325-.134-.77v-1.437c0-.446.046-.608.134-.77.087-.164.215-.292.378-.379.163-.087.324-.133.77-.133z" transform="translate(-22 -22) translate(6 8.009) translate(16 14)"/>
                </g>
            </g>
        </g>
    </g>
</svg>
