<svg xmlns="http://www.w3.org/2000/svg" width="24" height="24" viewBox="0 0 24 24">
    <g fill="none" fill-rule="evenodd">
        <g fill="#FFF">
            <g>
                <g>
                    <path d="M9.646 1.5c4.333 0 7.846 3.513 7.846 7.846 0 2.18-.889 4.153-2.324 5.575l6.675 6.675c.195.195.195.512 0 .707-.174.174-.443.193-.638.058l-.07-.058-6.723-6.723c-1.321 1.011-2.973 1.613-4.766 1.613-4.333 0-7.846-3.513-7.846-7.847C1.8 5.013 5.313 1.5 9.646 1.5zm0 1C5.865 2.5 2.8 5.565 2.8 9.346s3.065 6.847 6.846 6.847 6.846-3.066 6.846-6.847c0-3.78-3.065-6.846-6.846-6.846z" transform="translate(-956 -21) translate(956 16) translate(0 5)"/>
                </g>
            </g>
        </g>
    </g>
</svg>
