<svg xmlns="http://www.w3.org/2000/svg" width="20" height="20" viewBox="0 0 20 20">
    <g fill="none" fill-rule="evenodd">
        <g fill="#FFF">
            <g>
                <g>
                    <g>
                        <g>
                            <path d="M17.436 0c.892 0 1.215.093 1.54.267.327.174.583.43.757.756.174.326.267.65.267 1.54v14.873c0 .892-.093 1.215-.267 1.54-.174.327-.43.583-.756.757-.326.174-.65.267-1.54.267H2.563c-.892 0-1.215-.093-1.54-.267-.327-.174-.583-.43-.757-.756-.174-.326-.267-.65-.267-1.54V2.563c0-.892.093-1.215.267-1.54.174-.327.43-.583.756-.757C1.35.093 1.673 0 2.563 0h14.873zM9 11H1v6.436c0 .662.039.864.149 1.07.081.15.194.264.346.345.205.11.407.149 1.069.149H9v-8zm1 8h7.436c.662 0 .864-.039 1.07-.149.15-.081.264-.194.345-.346.11-.205.149-.407.149-1.069V10h-9v9zM1.495 1.149c-.152.081-.265.194-.346.346-.1.187-.141.37-.148.9L1 10h8V1H2.564c-.662 0-.864.039-1.07.149zM10 9h9V2.564c0-.662-.039-.864-.149-1.07-.081-.15-.194-.264-.346-.345-.187-.1-.37-.141-.9-.148L10 1v8z" transform="translate(-22 -86) translate(0 64) translate(4 8) translate(4) translate(14 14)"/>
                        </g>
                    </g>
                </g>
            </g>
        </g>
    </g>
</svg>
