<svg xmlns="http://www.w3.org/2000/svg" width="20" height="20" viewBox="0 0 20 20">
    <g fill="none" fill-rule="evenodd">
        <g fill="#FFF">
            <g>
                <g>
                    <g>
                        <path d="M10 0c5.523 0 10 4.477 10 10s-4.477 10-10 10S0 15.523 0 10 4.477 0 10 0zm0 1c-4.97 0-9 4.03-9 9s4.03 9 9 9 9-4.03 9-9-4.03-9-9-9zm1 12v2H9v-2h2zm-.61-7c.857 0 1.507.138 1.948.413.441.276.662.724.662 1.344v.083c0 .179-.019.348-.057.506-.037.159-.1.317-.188.476-.088.158-.204.321-.35.488-.145.167-.581.645-.777.875-.064.075-.185.221-.303.382-.087.119-.23.344-.269.468-.08.253-.058.546-.058.694v.274H9.004v-.274c0-.22.007-.421.021-.602.015-.18.05-.354.108-.52.057-.165.183-.335.296-.504.113-.168.268-.355.466-.558.172-.179.314-.336.427-.47.113-.134.203-.255.27-.362.066-.107.112-.206.137-.297.025-.091.037-.183.037-.276v-.068c0-.124-.021-.225-.064-.305-.043-.079-.11-.142-.2-.188-.089-.047-.2-.08-.333-.098-.133-.02-.29-.029-.474-.029-.125 0-.259.003-.4.008l-.434.018c-.147.007-.294.016-.441.026l-.42.03V6.332c.316-.107.679-.189 1.09-.246.41-.057.844-.085 1.3-.085z" transform="translate(-1040 -23) translate(956 16) translate(0 5) translate(84 2)"/>
                    </g>
                </g>
            </g>
        </g>
    </g>
</svg>
