<svg xmlns="http://www.w3.org/2000/svg" width="21" height="20" viewBox="0 0 21 20">
    <g fill="none" fill-rule="evenodd">
        <g fill="#FFF">
            <g>
                <g>
                    <path d="M17.29 11H4.5c-.276 0-.5-.224-.5-.5s.224-.5.5-.5h12.788l-4.642-4.647c-.195-.195-.195-.512 0-.707.196-.195.513-.195.708 0l5.495 5.5c.195.196.195.512 0 .708l-5.495 5.5c-.195.196-.512.196-.707.001-.196-.195-.196-.512 0-.707L17.288 11zM1.5 3c.276 0 .5.224.5.5v14c0 .276-.224.5-.5.5s-.5-.224-.5-.5v-14c0-.276.224-.5.5-.5z" transform="translate(-1168 -22) translate(1158.887 16) translate(9.198 6)"/>
                </g>
            </g>
        </g>
    </g>
</svg>
