<?xml version="1.0" encoding="UTF-8"?>
<svg width="68px" height="24px" viewBox="0 0 68 24" version="1.1" xmlns="http://www.w3.org/2000/svg" xmlns:xlink="http://www.w3.org/1999/xlink">
    <title>DB391BBA-7E9D-429B-897E-1CBA032DC16E@1,5x</title>
    <g id="Calendario-laboral" stroke="none" stroke-width="1" fill="none" fill-rule="evenodd">
        <g id="08-Calendarios-Laborales_Configuracion_02" transform="translate(-1267.000000, -20.000000)">
            <rect fill="#FAFAFA" x="0" y="0" width="1360" height="1197"></rect>
            <g id="header">
                <rect id="bg_header" fill="#004254" x="0" y="0" width="1360" height="64"></rect>
                <g id="Group-2" transform="translate(1022.000000, 16.000000)" fill="#FFFFFF">
                    <g id="Base/Logo" transform="translate(245.000000, 4.000000)">
                        <path d="M9.33333333,8 L9.33333333,19.3333333 L5.33333333,19.3333333 L5.33333333,8 L9.33333333,8 Z M20.0687746,7.76855685 C21.9956968,7.76855685 23.3654148,8.50654871 23.9037364,9.79071153 C24.1755543,10.4611159 24.2792386,11.3652841 24.2792386,12.9228744 L24.2792386,19.2726817 L20.5481872,19.2726817 L20.5481872,13.3003615 C20.5481872,12.1207142 20.4843032,11.7227115 20.2953649,11.3850019 C20.0474046,10.987911 19.6721285,10.8616261 18.6790433,10.8616261 L15.8369405,10.8616261 L15.8369405,19.2726817 L12.1062283,19.2726817 L12.1062283,7.76855685 L20.0687746,7.76855685 Z M39.305749,4.01055414 L39.305749,19.2726817 L32.1764084,19.2726817 C29.7083379,19.2726817 28.2999502,18.7460005 27.4519326,17.5483452 C26.9539767,16.8109232 26.7259164,15.5928662 26.7259164,13.6773927 L26.7259164,13.3623642 C26.7259164,11.0926545 27.0185391,9.8972787 27.7839032,9.11928141 C28.7164965,8.14855142 29.962404,7.76855685 32.1764084,7.76855685 L35.576959,7.76855685 L35.576959,4.01055414 L39.305749,4.01055414 Z M48.5818068,7.76856825 L48.5818068,10.8616374 L47.3349947,10.8616374 C46.3619228,10.8616374 45.9829154,10.9870106 45.7408347,11.3841015 C45.55461,11.7227229 45.4929874,12.1207256 45.4929874,13.3003729 L45.4929874,19.2726931 L41.7618229,19.2726931 L41.7618229,12.9228858 C41.7618229,11.3652955 41.8607583,10.4611273 42.1349507,9.79060896 C42.669654,8.50633216 44.0383545,7.76856825 45.9640329,7.76856825 L48.5818068,7.76856825 Z M63.2469034,7.76855685 L63.2469034,19.2726817 L56.1150752,19.2726817 C53.6448564,19.2726817 52.235338,18.7460005 51.3826846,17.5483452 C50.8867639,16.8109232 50.657573,15.5928662 50.657573,13.6773927 L50.657573,13.3623642 C50.657573,11.0926545 50.9481604,9.8972787 51.7155598,9.11928141 C52.6506405,8.14855142 53.8929298,7.76855685 56.1150752,7.76855685 L63.2469034,7.76855685 Z M35.576959,10.8616261 L32.4927755,10.8616261 C30.727542,10.8616261 30.4583247,11.1780223 30.4583247,13.3208771 L30.4583247,13.722641 C30.4583247,15.8607088 30.727542,16.181778 32.4927755,16.181778 L35.576959,16.181778 L35.576959,10.8616261 Z M59.5134775,10.8616261 L56.4222837,10.8616261 C54.7171665,10.8616261 54.4123637,11.1579388 54.3944733,13.1191551 L54.3935994,13.722641 C54.3935994,15.8607088 54.6603292,16.181778 56.4222837,16.181778 L59.5134775,16.181778 L59.5134775,10.8616261 Z" id="Combined-Shape"></path>
                    </g>
                </g>
            </g>
        </g>
    </g>
</svg>