<svg xmlns="http://www.w3.org/2000/svg" width="20" height="20" viewBox="0 0 20 20">
    <g fill="none" fill-rule="evenodd">
        <g>
            <g>
                <g>
                    <g>
                        <g transform="translate(-1080 -23) translate(956 16) translate(0 5) translate(124 2) translate(0 1)">
                            <path fill="#FFF" d="M8.5 15.5c0 .828.672 1.5 1.5 1.5.78 0 1.42-.595 1.493-1.356l.007-.144h1c0 1.38-1.12 2.5-2.5 2.5-1.325 0-2.41-1.032-2.495-2.336L7.5 15.5h1zM10.341 0c3.313 0 6.034 2.647 6.153 5.932l.005.225v4.686c0 1.193.384 1.917 1.02 2.324.33.212.665.305.896.328l.093.005H20v1H0v-1h.492l.14-.008c.089-.007.202-.02.334-.041.368-.06.736-.163 1.074-.318.869-.397 1.39-1.05 1.452-2.08l.006-.21V6.157c0-3.313 2.648-6.034 5.933-6.153L9.656 0h.685zm0 1h-.685C6.893 1 4.617 3.204 4.503 5.94l-.005.217v4.686c0 1.166-.43 2.046-1.167 2.658h13.046c-.516-.569-.828-1.362-.873-2.393l-.005-.265V6.157c0-2.763-2.204-5.038-4.94-5.152L10.342 1z"/>
                            <circle cx="15" cy="3" r="3" fill="#FBBB21"/>
                        </g>
                    </g>
                </g>
            </g>
        </g>
    </g>
</svg>
