<svg xmlns="http://www.w3.org/2000/svg" width="20" height="20" viewBox="0 0 20 20">
    <g fill="none" fill-rule="evenodd">
        <g fill="#FFF">
            <g>
                <g>
                    <g>
                        <g>
                            <path d="M10.554.015c.497.029.928.355 1.097.832l.752 2.114c.303.1.593.22.87.354l2.026-.953c.46-.22.998-.145 1.372.19.273.245.534.506.776.776.334.373.409.911.19 1.372l-.96 2.02c.141.28.26.57.362.869l2.113.76c.477.169.803.6.831 1.097.01.184.017.369.017.554 0 .186-.006.371-.016.554-.028.497-.354.928-.83 1.098l-2.115.752c-.1.305-.22.595-.355.87l.954 2.026c.219.46.143 1-.19 1.372-.244.272-.505.532-.776.775-.374.335-.913.407-1.371.191l-2.02-.96c-.281.14-.571.26-.869.36l-.76 2.115c-.17.477-.6.802-1.098.83-.183.011-.368.017-.554.017-.186 0-.37-.006-.554-.016-.497-.028-.928-.354-1.097-.83l-.752-2.115c-.306-.1-.597-.22-.871-.354l-2.025.954c-.461.217-1 .143-1.372-.191-.27-.243-.53-.503-.775-.775-.335-.374-.41-.913-.19-1.373l.96-2.019c-.142-.283-.261-.573-.362-.868l-2.114-.76c-.477-.17-.803-.6-.832-1.098C.006 10.37 0 10.186 0 10c0-.185.006-.37.016-.553.028-.498.355-.929.832-1.098l2.113-.752c.1-.303.22-.594.355-.87L2.362 4.7c-.219-.459-.144-.998.19-1.371.244-.272.505-.533.776-.776.374-.334.913-.41 1.373-.19l2.019.96c.283-.142.573-.261.869-.362l.76-2.114c.17-.477.6-.803 1.097-.832.367-.02.742-.02 1.108 0zm-1.05 1l-.765 2.177c-.131.37-.425.656-.805.786-.254.086-.502.188-.737.303-.361.175-.77.18-1.123.013l-2.077-.989c-.246.212-.48.447-.7.69l.996 2.08c.167.352.163.76-.013 1.12-.115.237-.217.484-.303.738-.13.38-.416.674-.786.806l-2.175.774C1.006 9.668 1 9.833 1 10c0 .167.005.333.014.497l2.177.764c.37.13.656.425.786.806.086.253.188.5.304.738.175.36.18.768.012 1.121l-.988 2.077c.212.246.448.482.69.699l2.08-.995c.171-.081.357-.122.544-.122.196 0 .393.045.578.135.234.115.481.216.736.303.38.13.675.415.806.786l.774 2.176c.31.022.655.02.985.002l.763-2.177c.131-.37.426-.657.807-.787.255-.086.502-.188.737-.303.36-.176.767-.18 1.122-.013l2.077.988c.245-.211.48-.446.7-.69l-.997-2.078c-.168-.354-.163-.763.013-1.123.115-.234.217-.482.304-.736.128-.381.415-.675.786-.807l2.175-.773.005-.003c.005-.152.01-.318.01-.485 0-.166-.005-.332-.014-.497l-2.177-.763c-.37-.133-.657-.427-.787-.807-.086-.255-.188-.503-.302-.736-.176-.361-.18-.77-.013-1.123l.987-2.077c-.21-.245-.445-.48-.69-.7l-2.078.996c-.354.167-.762.163-1.122-.012-.236-.115-.485-.218-.737-.304-.381-.13-.675-.416-.806-.787l-.774-2.173c-.309-.023-.655-.021-.984-.002zM10 6c2.21 0 4 1.79 4 4s-1.79 4-4 4-4-1.79-4-4 1.79-4 4-4zm0 1c-1.657 0-3 1.343-3 3s1.343 3 3 3 3-1.343 3-3-1.343-3-3-3z" transform="translate(-22 -142) translate(0 64) translate(4 8) translate(4 56) translate(14 14)"/>
                        </g>
                    </g>
                </g>
            </g>
        </g>
    </g>
</svg>
