<svg xmlns="http://www.w3.org/2000/svg" width="21" height="20" viewBox="0 0 21 20">
    <g fill="none" fill-rule="evenodd">
        <g fill="#2E6C99">
            <g>
                <g>
                    <g>
                        <path d="M4.146 4.147c.195-.196.512-.196.707 0L10 9.287l5.148-5.142c.195-.195.512-.195.707 0 .195.196.195.513 0 .708l-5.15 5.143 5.15 5.144c.173.174.193.443.058.638l-.058.07c-.195.195-.512.195-.707 0l-5.147-5.142-5.148 5.142c-.195.195-.512.195-.707 0-.195-.196-.195-.513 0-.708l5.149-5.144-5.148-5.143c-.174-.174-.193-.443-.059-.638z" transform="translate(-1316 -86) translate(64 64) translate(1003.804 17) translate(248.344 5)"/>
                    </g>
                </g>
            </g>
        </g>
    </g>
</svg>
