<svg width="20" height="23" viewBox="0 0 20 23" fill="none" xmlns="http://www.w3.org/2000/svg">
<circle cx="10" cy="10" r="9.5" stroke="#004254"/>
<path d="M10.5391 14H9.45508V7.66016H10.5391V14ZM9.36719 5.97852C9.36719 5.80273 9.41992 5.6543 9.52539 5.5332C9.63477 5.41211 9.79492 5.35156 10.0059 5.35156C10.2168 5.35156 10.377 5.41211 10.4863 5.5332C10.5957 5.6543 10.6504 5.80273 10.6504 5.97852C10.6504 6.1543 10.5957 6.30078 10.4863 6.41797C10.377 6.53516 10.2168 6.59375 10.0059 6.59375C9.79492 6.59375 9.63477 6.53516 9.52539 6.41797C9.41992 6.30078 9.36719 6.1543 9.36719 5.97852Z" fill="#004254"/>
</svg>
