<svg xmlns="http://www.w3.org/2000/svg" width="16" height="16" viewBox="0 0 16 16">
    <g fill="none" fill-rule="evenodd">
        <g fill="#6E767D">
            <g>
                <g>
                    <path d="M12.118 3.317c.157-.156.41-.156.566 0 .156.157.156.41 0 .566l-4.12 4.115 4.12 4.115c.137.137.154.348.051.503l-.05.063c-.157.156-.41.156-.567 0L8.001 8.565 3.883 12.68c-.157.156-.41.156-.566 0-.156-.157-.156-.41 0-.566l4.12-4.115-4.12-4.115c-.136-.137-.154-.348-.051-.503l.051-.063c.156-.156.41-.156.566 0L8 7.431z" transform="translate(-1308 -88) translate(928 72) translate(380 16)"/>
                </g>
            </g>
        </g>
    </g>
</svg>
