<svg xmlns="http://www.w3.org/2000/svg" width="21" height="20" viewBox="0 0 21 20">
    <g fill="none" fill-rule="evenodd">
        <g fill="#004254">
            <g>
                <g>
                    <g>
                        <g>
                            <path d="M10.5 1c1.763 0 3.222 1.304 3.465 3H19.5c.276 0 .5.224.5.5s-.224.5-.5.5H17v13c0 1.105-.895 2-2 2H6c-1.105 0-2-.895-2-2V5H1.5c-.276 0-.5-.224-.5-.5s.224-.5.5-.5h5.535c.243-1.696 1.702-3 3.465-3zM16 5H5v13c0 .552.448 1 1 1h9c.552 0 1-.448 1-1V5zM8.5 9c.276 0 .5.224.5.5v5c0 .276-.224.5-.5.5s-.5-.224-.5-.5v-5c0-.276.224-.5.5-.5zm2 0c.276 0 .5.224.5.5v5c0 .276-.224.5-.5.5s-.5-.224-.5-.5v-5c0-.276.224-.5.5-.5zm2 0c.276 0 .5.224.5.5v5c0 .276-.224.5-.5.5s-.5-.224-.5-.5v-5c0-.276.224-.5.5-.5zm-2-7c-1.21 0-2.218.859-2.45 2h4.9c-.232-1.141-1.24-2-2.45-2z" transform="translate(-1009 -236) translate(88 208) translate(818.258 22) translate(102.742) translate(.097 6)"/>
                        </g>
                    </g>
                </g>
            </g>
        </g>
    </g>
</svg>
