<svg xmlns="http://www.w3.org/2000/svg" width="21" height="20" viewBox="0 0 21 20">
    <g fill="none" fill-rule="evenodd">
        <g fill="#004254">
            <g>
                <g>
                    <g>
                        <path d="M13.887 16.813l-.026.03c-.013.013-.026.026-.04.037l-.007.006-.055.04-.007.003c-.014.009-.029.016-.044.023l-.034.015-.04.013-.045.01c-.016.003-.031.005-.047.006l-.034.002h-.018l-6.999-.122c-.276-.005-.496-.233-.49-.509.004-.276.232-.496.508-.491l6.481.113-.218-12.48c-.005-.276.215-.504.491-.509.276-.005.504.215.509.491l.227 12.998v.018l-.004.033-.003.04-.001.008.008-.081c0 .044-.007.086-.019.126l-.012.04-.015.035c-.007.014-.014.029-.023.043l-.004.007-.04.055z" transform="translate(-1195 -149) translate(64 127) translate(1123 16) translate(8.862 6) rotate(37 10 9.999)"/>
                    </g>
                </g>
            </g>
        </g>
    </g>
</svg>
