<svg xmlns="http://www.w3.org/2000/svg" xmlns:xlink="http://www.w3.org/1999/xlink" width="20" height="20" viewBox="0 0 20 20">
    <defs>
        <filter id="ozzlk7hx5a" width="366.6%" height="366.8%" x="-133.3%" y="-116.7%" filterUnits="objectBoundingBox">
            <feOffset dy="2" in="SourceAlpha" result="shadowOffsetOuter1"/>
            <feGaussianBlur in="shadowOffsetOuter1" result="shadowBlurOuter1" stdDeviation="5"/>
            <feColorMatrix in="shadowBlurOuter1" values="0 0 0 0 0 0 0 0 0 0 0 0 0 0 0 0 0 0 0.1 0"/>
        </filter>
        <path id="0v85vz5bzb" d="M4.146 4.147c.195-.196.512-.196.707 0L10 9.287l5.148-5.142c.195-.195.512-.195.707 0 .195.196.195.513 0 .708l-5.15 5.143 5.15 5.144c.173.174.193.443.058.638l-.058.07c-.195.195-.512.195-.707 0l-5.147-5.142-5.148 5.142c-.195.195-.512.195-.707 0-.195-.196-.195-.513 0-.708l5.149-5.144-5.148-5.143c-.174-.174-.193-.443-.059-.638z"/>
    </defs>
    <g fill="none" fill-rule="evenodd">
        <g>
            <g>
                <g transform="translate(-1183 -56) translate(186 40) translate(997 16)">
                    <use fill="#000" filter="url(#ozzlk7hx5a)" xlink:href="#0v85vz5bzb"/>
                    <use fill="#FFF" xlink:href="#0v85vz5bzb"/>
                </g>
            </g>
        </g>
    </g>
</svg>
