<svg xmlns="http://www.w3.org/2000/svg" width="20" height="20" viewBox="0 0 20 20">
    <g fill="none" fill-rule="evenodd">
        <g fill="#6E767D">
            <g>
                <g>
                    <g>
                        <path d="M11.436 0c.892 0 1.215.093 1.54.267.327.174.583.43.757.756.174.326.267.65.267 1.54V5h2.436c.892 0 1.215.093 1.54.267.327.174.583.43.757.756.174.326.267.65.267 1.54v9.873c0 .892-.093 1.215-.267 1.54-.174.327-.43.583-.756.757-.326.174-.65.267-1.54.267H9.563c-.892 0-1.215-.093-1.54-.267-.327-.174-.583-.43-.757-.756-.174-.326-.267-.65-.267-1.54V15H4.564c-.892 0-1.215-.093-1.54-.267-.327-.174-.583-.43-.757-.756-.174-.326-.267-.65-.267-1.54V2.563c0-.892.093-1.215.267-1.54.174-.327.43-.583.756-.757C3.35.093 3.673 0 4.563 0h6.873zm5.17 6.001L9.564 6c-.662 0-.864.039-1.07.149-.15.081-.264.194-.345.346-.1.187-.141.37-.148.9L8 17.435c0 .662.039.864.149 1.07.081.15.194.264.346.345.205.11.407.149 1.069.149h6.872c.662 0 .864-.039 1.07-.149.15-.081.264-.194.345-.346.11-.205.149-.407.149-1.069V7.564c0-.662-.039-.864-.149-1.07-.081-.15-.194-.264-.346-.345-.187-.1-.37-.141-.9-.148zm-5-5L4.564 1c-.662 0-.864.039-1.07.149-.15.081-.264.194-.345.346-.1.187-.141.37-.148.9L3 12.435c0 .662.039.864.149 1.07.081.15.194.264.346.345.205.11.407.149 1.069.149H7V7.564c0-.892.093-1.215.267-1.54.174-.327.43-.583.756-.757.326-.174.65-.267 1.54-.267H13V2.564c0-.662-.039-.864-.149-1.07-.081-.15-.194-.264-.346-.345-.187-.1-.37-.141-.9-.148z" transform="translate(-625 -234) translate(88 -277) translate(465 505) translate(72 6)"/>
                    </g>
                </g>
            </g>
        </g>
    </g>
</svg>
