<?xml version="1.0" encoding="UTF-8"?>
<svg width="20px" height="20px" viewBox="0 0 20 20" version="1.1" xmlns="http://www.w3.org/2000/svg" xmlns:xlink="http://www.w3.org/1999/xlink">
    <title>icon_OK</title>
    <defs>
        <filter id="filter-1">
            <feColorMatrix in="SourceGraphic" type="matrix" values="0 0 0 0 0.000000 0 0 0 0 0.258824 0 0 0 0 0.329412 0 0 0 1.000000 0"></feColorMatrix>
        </filter>
    </defs>
    <g id="icon_OK" stroke="none" stroke-width="1" fill="none" fill-rule="evenodd">
        <g id="ok_icon">
            <g transform="translate(0.500000, 1.000000)">
                <path d="M4,5.5 L0,5.5 C-0.276142375,5.5 -0.5,5.72385763 -0.5,6 L-0.5,17 C-0.5,17.2761424 -0.276142375,17.5 0,17.5 L4,17.5 C4.27614237,17.5 4.5,17.2761424 4.5,17 L4.5,6 C4.5,5.72385763 4.27614237,5.5 4,5.5 Z M3.5,6.5 L3.5,16.5 L0.5,16.5 L0.5,6.5 L3.5,6.5 Z" id="Stroke-1" fill="#004254" fill-rule="nonzero"></path>
                <path d="M18.2963118,5.5 L14.7036882,5.5 C14.0358658,5.5 13.5,6.05066041 13.5,6.72311614 L13.5,8.27688386 C13.5,8.94933959 14.0358658,9.5 14.7036882,9.5 L18.2963118,9.5 C18.9641342,9.5 19.5,8.94933959 19.5,8.27688386 L19.5,6.72311614 C19.5,6.05066041 18.9641342,5.5 18.2963118,5.5 Z M14.7036882,6.5 L18.2963118,6.5 C18.4056626,6.5 18.5,6.59694195 18.5,6.72311614 L18.5,8.27688386 C18.5,8.40305805 18.4056626,8.5 18.2963118,8.5 L14.7036882,8.5 C14.5943374,8.5 14.5,8.40305805 14.5,8.27688386 L14.5,6.72311614 C14.5,6.59694195 14.5943374,6.5 14.7036882,6.5 Z" id="Stroke-3" fill="#004254" fill-rule="nonzero"></path>
                <path d="M18.298419,8.5 L14.7013614,8.5 C14.0340511,8.5 13.5,9.05243787 13.5,9.72542193 L13.5,11.2745781 C13.5,11.947734 14.0340003,12.5 14.7013614,12.5 L18.298419,12.5 C18.9657718,12.5 19.5,11.9477373 19.5,11.2745781 L19.5,9.72542193 C19.5,9.05243464 18.9657211,8.5 18.298419,8.5 Z M14.7013614,9.5 L18.298419,9.5 C18.4058204,9.5 18.5,9.59737994 18.5,9.72542193 L18.5,11.2745781 C18.5,11.4027454 18.4059213,11.5 18.298419,11.5 L14.7013614,11.5 C14.5939511,11.5 14.5,11.4028353 14.5,11.2745781 L14.5,9.72542193 C14.5,9.59729009 14.594052,9.5 14.7013614,9.5 Z" id="Stroke-4" fill="#004254" fill-rule="nonzero"></path>
                <path d="M18.9924979,11.5000563 L17.8799371,11.5167513 L15.1123358,11.516695 C14.2184349,11.516695 13.5,12.2574817 13.5,13.1635492 L13.5,13.8531458 C13.5,14.7593801 14.2183733,15.4999988 15.1123358,15.4999988 L17.8874393,15.4999988 C18.7814124,15.4999988 19.5,14.7593661 19.5,13.8531458 L19.5,11.9999988 C19.5,11.7209232 19.2715433,11.4958689 18.9924979,11.5000563 Z M17.8874393,12.516695 L18.5,12.507 L18.5,13.8531458 C18.5,14.2137308 18.2222521,14.5 17.8874393,14.5 L15.1123358,14.5 C14.7775981,14.5 14.5,14.2138052 14.5,13.8531458 L14.5,13.1635492 C14.5,12.8030265 14.777692,12.516695 15.1123358,12.516695 L17.8874393,12.516695 Z" id="Stroke-5" fill="#004254" fill-rule="nonzero"></path>
                <path d="M17.9989669,14.5 L14.9752907,14.5020151 C14.151756,14.5020151 13.5,15.2047967 13.5,16.0536607 L13.5,16.9483544 C13.5,17.7972184 14.151756,18.5 14.9752907,18.5 L17.0247093,18.5 C17.848244,18.5 18.5,17.7972184 18.5,16.9483544 L18.5,15 C18.5,14.7234541 18.2755122,14.4994297 17.9989669,14.5 Z M14.9752907,15.5020151 L17.5,15.501 L17.5,16.9483544 C17.5,17.2610696 17.2784171,17.5 17.0247093,17.5 L14.9752907,17.5 C14.7215829,17.5 14.5,17.2610696 14.5,16.9483544 L14.5,16.0536607 C14.5,15.7409455 14.7215829,15.5020151 14.9752907,15.5020151 Z" id="Stroke-6" fill="#004254" fill-rule="nonzero"></path>
                <path d="M5.32305593,15.5 L5.50247962,15.5333019 C5.68701182,15.6042459 5.93055131,15.7315081 6.18511837,15.9252354 L6.37416198,16.0804149 L6.43444049,16.1353263 C6.67796375,16.3637564 6.86146029,16.4716371 6.99293551,16.4950381 L7.04612039,16.5 L14,16.5 C14.2761424,16.5 14.5,16.7238576 14.5,17 C14.5,17.2454599 14.3231248,17.4496084 14.0898756,17.4919443 L14,17.5 L7.04612039,17.5 C6.66259682,17.5 6.28968822,17.3288125 5.89815649,16.9967968 L5.68735536,16.8082265 C5.56192841,16.7005309 5.43575931,16.6162225 5.32820084,16.5557455 L5.22,16.5 L4,16.5 C3.75454011,16.5 3.55039163,16.3231248 3.50805567,16.0898756 L3.5,16 C3.5,15.7545401 3.67687516,15.5503916 3.91012437,15.5080557 L4,15.5 L5.32305593,15.5 Z" id="Stroke-7" fill="#004254" fill-rule="nonzero"></path>
                <path d="M9.5113507,0.00573381163 C10.0452426,-0.522994201 10.7289704,-0.703407701 11.4275986,-0.242936319 C12.3144782,0.341613127 13.0166452,1.24376173 13.2922776,2.00196939 C13.5004297,2.57455262 13.5599941,3.9106034 13.4393978,4.53898921 L13.2401458,5.4924584 L13.133,5.975 L13.1332754,7.81189116 L13.1205339,7.92404815 L13.0703381,8.11381638 C13.0595772,8.15068086 13.0475903,8.19006163 13.0343348,8.23180577 L12.9392365,8.50940786 C12.9207357,8.55999387 12.9008809,8.61263745 12.8796294,8.66718569 C12.6687779,9.20839781 12.3889676,9.749491 12.029412,10.2570409 C11.8723022,10.4788176 11.7027726,10.6896767 11.5202565,10.8878915 C10.8334605,11.633764 10.4226146,11.9548267 9.85904427,12.2371159 L9.42641386,12.4452255 C9.18052263,12.5708921 8.87931544,12.4734309 8.75364876,12.2275397 C8.64194504,12.0089697 8.70653994,11.7466932 8.89497069,11.6028483 L8.97133456,11.5547745 L9.27732596,11.4077277 C9.8085783,11.1590788 10.1235057,10.9284967 10.7846179,10.2105174 C10.937527,10.0444561 11.0803822,9.86677428 11.2134187,9.67897962 C11.5221117,9.24322742 11.764945,8.77363977 11.9478459,8.30417108 L11.9984865,8.17028638 L12.0780087,7.93942867 L12.133,7.749 L12.1332754,5.92308784 L12.1453437,5.81389692 L12.4053818,4.61038696 L12.4573131,4.35054925 C12.5458404,3.88926403 12.4943317,2.73390548 12.3524526,2.34362547 C12.1494434,1.78518932 11.5825922,1.0568954 10.8772752,0.592015328 C10.6390124,0.43497439 10.4482182,0.485318767 10.215013,0.716268421 L10.1451423,0.790359116 L10.08,0.868 L10.0848123,1.05637974 C10.0910788,1.38994515 10.0941234,1.72837614 10.0921729,2.04514149 L10.0800606,2.67052729 C10.0661746,3.03284976 10.0393786,3.2873076 9.99194545,3.44192985 C9.95642937,3.55765154 9.86289779,3.74407395 9.73751584,3.96301218 L9.52882579,4.31103329 C9.49115303,4.37151025 9.45230728,4.43282617 9.41269738,4.49438441 L9.16913872,4.86186861 L8.92686415,5.20652988 C8.73095478,5.47628285 8.55682451,5.69242998 8.45557712,5.78039138 L8.39023191,5.83255964 L8.17564567,5.98529553 L7.87810347,6.18439733 L7.35212381,6.52229882 L6.83460312,6.84189919 L6.55209907,7.00846565 L6.36007005,7.11239853 L6.07102625,7.24460137 L5.80531662,7.35703631 L5.69606729,7.40095845 L5.51249902,7.43587492 L4,7.43587492 C3.72385763,7.43587492 3.5,7.21201729 3.5,6.93587492 C3.5,6.69041503 3.67687516,6.48626655 3.91012437,6.44393059 L4,6.43587492 L5.417,6.435 L5.6696117,6.32869136 L5.92509886,6.21195418 L6.08721045,6.12307598 L6.4894566,5.8813722 L6.97853162,5.57526478 L7.43736164,5.27862141 L7.66863128,5.12259483 C7.73095436,5.07919055 7.77658351,5.04560678 7.7997373,5.0254913 C7.84632688,4.98501535 7.94153526,4.86489931 8.05947843,4.7031359 L8.25020876,4.43400436 L8.55777984,3.97550563 C8.59136392,3.92387608 8.62434674,3.87261175 8.65632385,3.82230627 L8.83288258,3.5367288 C8.93822877,3.3603468 9.01454169,3.21830286 9.03593732,3.1485897 L9.04446846,3.11012885 L9.0602142,2.97636998 L9.07921163,2.65186165 L9.09053592,2.20786594 L9.09252617,1.72490535 L9.07726482,0.736535584 C9.0745774,0.644117683 9.09756752,0.552764447 9.14368034,0.472627702 C9.21608149,0.346806039 9.33829012,0.177120532 9.5113507,0.00573381163 Z" id="Stroke-8" fill="#004254" fill-rule="nonzero"></path>
                <path d="M14,7.5 C14.2761424,7.5 14.5,7.72385763 14.5,8 C14.5,8.24545989 14.3231248,8.44960837 14.0898756,8.49194433 L14,8.5 L12,8.5 C11.7238576,8.5 11.5,8.27614237 11.5,8 C11.5,7.75454011 11.6768752,7.55039163 11.9101244,7.50805567 L12,7.5 L14,7.5 Z" id="Stroke-9" fill="#004254" fill-rule="nonzero"></path>
            </g>
        </g>
    </g>
</svg>