<svg xmlns="http://www.w3.org/2000/svg" width="20" height="21" viewBox="0 0 20 21">
    <g fill="none" fill-rule="evenodd">
        <g fill="#004254">
            <g>
                <g>
                    <g>
                        <g>
                            <path d="M16.294 11H2.5c-.276 0-.5-.224-.5-.5s.224-.5.5-.5h13.794L11.65 5.353c-.195-.195-.195-.512 0-.707.196-.195.513-.195.708 0l5.495 5.5c.09.091.146.216.146.354 0 .138-.056.263-.146.353l-5.495 5.501c-.195.196-.512.196-.707 0-.196-.194-.196-.51 0-.706L16.293 11z" transform="translate(-1307 -297) translate(87 200) translate(1 83) rotate(-90 626.125 -590.375) rotate(90 9.75 11.75)"/>
                        </g>
                    </g>
                </g>
            </g>
        </g>
    </g>
</svg>
