<svg xmlns="http://www.w3.org/2000/svg" width="21" height="22" viewBox="0 0 21 22">
    <g fill="none" fill-rule="evenodd">
        <g fill="#004254">
            <g>
                <g>
                    <g>
                        <g>
                            <g>
                                <path d="M16.893 11H2.592c-.286 0-.518-.224-.518-.5s.232-.5.518-.5h14.301L12.08 5.353c-.202-.195-.202-.512 0-.707.203-.195.531-.195.734 0l5.697 5.5c.093.091.151.216.151.354 0 .138-.058.263-.151.353l-5.697 5.501c-.203.196-.531.196-.734 0-.202-.194-.202-.51 0-.706L16.893 11z" transform="translate(-274 -85) translate(64.5 64) translate(24.319 14) translate(178.581) rotate(-90 17.51 17.079) translate(6.22 7)"/>
                            </g>
                        </g>
                    </g>
                </g>
            </g>
        </g>
    </g>
</svg>
