<svg xmlns="http://www.w3.org/2000/svg" width="21" height="20" viewBox="0 0 21 20">
    <g fill="none" fill-rule="evenodd">
        <g fill="#004254">
            <g>
                <g>
                    <g>
                        <path d="M12.5 0c.276 0 .5.224.5.5v1.499L14.5 2C15.883 2.002 17 3.122 17 4.503L16.997 6H17v1h-.004l-.002 2.5c0 .032-.003.063-.009.093C18.775 10.5 20 12.357 20 14.5c0 3.038-2.462 5.5-5.5 5.5-2.142 0-3.997-1.224-4.906-3.01-.031.007-.064.01-.098.01H2.5C1.12 17 0 15.88 0 14.5v-10C0 3.12 1.12 2 2.5 2L4 1.999V.5c0-.276.224-.5.5-.5s.5.224.5.5v1.499h7V.5c0-.276.224-.5.5-.5zm2 10c-2.485 0-4.5 2.015-4.5 4.5s2.015 4.5 4.5 4.5 4.5-2.015 4.5-4.5-2.015-4.5-4.5-4.5zm-.354 2.147c.195-.196.512-.196.707 0l2 1.997c.196.196.196.512 0 .708l-2 2c-.195.195-.511.195-.707 0-.195-.196-.195-.512 0-.708L15.29 15H12.5c-.276 0-.5-.224-.5-.5s.224-.5.5-.5h2.794l-1.147-1.146c-.174-.174-.193-.443-.059-.638zM15.996 7H1v7.5c0 .828.672 1.5 1.5 1.5h6.707C9.072 15.523 9 15.02 9 14.5 9 11.462 11.462 9 14.5 9c.518 0 1.018.071 1.493.205L15.996 7zM4.49 2.999L2.5 3C1.672 3 1 3.672 1 4.5V6h14.997L16 4.502C16 3.673 15.33 3 14.502 3H12.5l-.01-.001H4.51L4.5 3l-.01-.001z" transform="translate(-986 -1289) translate(88 1267) translate(898 22) translate(.591)"/>
                    </g>
                </g>
            </g>
        </g>
    </g>
</svg>
