<svg xmlns="http://www.w3.org/2000/svg" width="21" height="22" viewBox="0 0 21 22">
    <g fill="none" fill-rule="evenodd">
        <g fill="#004254">
            <g>
                <g>
                    <g>
                        <g>
                            <path d="M8.294 0c4.581 0 8.295 3.582 8.295 8 0 2.276-.986 4.33-2.568 5.788l6.531 5.33c.219.179.246.494.061.705-.185.21-.512.237-.73.059l-6.667-5.442C11.84 15.42 10.137 16 8.294 16 3.714 16 0 12.418 0 8s3.714-8 8.294-8zm0 1C4.286 1 1.037 4.134 1.037 8s3.25 7 7.257 7c4.009 0 7.258-3.134 7.258-7s-3.25-7-7.258-7z" transform="translate(-921 -85) translate(64.5 64) translate(369.896 15) rotate(90 256.89 257.3) translate(6.22 7)"/>
                        </g>
                    </g>
                </g>
            </g>
        </g>
    </g>
</svg>
