<svg xmlns="http://www.w3.org/2000/svg" width="21" height="20" viewBox="0 0 21 20">
    <g fill="none" fill-rule="evenodd">
        <g fill="#004254">
            <g>
                <g>
                    <g>
                        <path d="M17.5 18c.276 0 .5.224.5.5s-.224.5-.5.5h-15c-.276 0-.5-.224-.5-.5s.224-.5.5-.5h15zM9.854 1.146l6 5.995c.195.196.195.512 0 .707-.196.196-.512.196-.707 0L10 2.707V15.5c0 .276-.224.5-.5.5s-.5-.224-.5-.5V2.706L3.853 7.849c-.195.195-.512.195-.707 0-.195-.196-.195-.513 0-.708l6.002-5.995c.195-.195.511-.195.706 0z" transform="translate(-1138 -1289) translate(88 1267) translate(1038 16) translate(12.847 6)"/>
                    </g>
                </g>
            </g>
        </g>
    </g>
</svg>
